<svg width="314" height="86" viewBox="0 0 314 86" fill="none" xmlns="http://www.w3.org/2000/svg">
<g clip-path="url(#clip0_32_533)">
<path d="M49.3976 0H84.8317C85.5526 0 86.1372 0.582831 86.1372 1.30179V55.3166C86.1372 56.6104 84.4501 57.112 83.7396 56.0294L48.3055 2.01457C47.7376 1.14878 48.3603 0 49.3976 0Z" fill="#246DFF"/>
<path d="M36.7394 0H1.3051C0.584315 0 0 0.582831 0 1.30179V55.3166C0 56.6104 1.68698 57.112 2.39719 56.0294L37.8315 2.01457C38.3995 1.14878 37.7767 0 36.7394 0Z" fill="#20A34E"/>
<path d="M42.4615 43.246L2.20808 83.6992C1.39065 84.5208 1.97401 85.9182 3.13438 85.9182H83.0357C84.1914 85.9182 84.7772 84.5306 83.9695 83.706L44.3211 43.2531C43.8118 42.7335 42.9747 42.7303 42.4615 43.246Z" fill="#F86606"/>
<path d="M276.875 11.8198H261.797C257.079 11.8198 255.058 14.1722 255.058 18.4572V22.5742L277.026 22.5749L289.577 51.478L302.129 22.5749H313.079L286.797 82.9865H276.015L284.102 64.3336L269.07 31.6486H255.058V65.0893H244.276V31.6486H232.567V22.5742H244.276V16.357C244.276 8.12291 248.824 3.24951 258.511 3.24951H276.875V11.8198Z" fill="white"/>
<path fill-rule="evenodd" clip-rule="evenodd" d="M191.061 21.6505C202.18 21.6506 211.277 29.969 211.277 43.8324C211.277 57.7798 202.18 66.0138 191.061 66.0138C181.795 66.0138 177.162 60.3004 176.32 58.6199V82.9028H165.706V22.5747H176.403V29.2966C177.162 27.7002 181.795 21.6505 191.061 21.6505ZM188.281 31.0611C180.952 31.0613 176.235 36.5226 176.235 43.8324C176.235 51.0581 180.952 56.6035 188.281 56.6037C195.693 56.6037 200.411 51.0582 200.411 43.8324C200.411 36.5225 195.693 31.0611 188.281 31.0611Z" fill="white"/>
<path fill-rule="evenodd" clip-rule="evenodd" d="M137.742 21.4821C150.966 21.4822 158.295 28.3718 158.295 38.4542V52.8223C158.295 55.3428 159.221 56.5189 161.664 56.6869V65.3411H158.295C152.989 65.2569 149.534 63.2405 148.355 59.4596C146.249 62.4842 141.869 66.0138 134.541 66.0138C124.517 66.0138 116.935 60.3 116.935 51.6457C116.936 43.0756 123.422 38.4543 133.951 38.4542H147.934C147.934 33.3291 143.975 30.0525 137.742 30.0524C131.845 30.0524 129.486 33.2449 128.897 34.3372H118.03C118.873 29.8 124.349 21.4821 137.742 21.4821ZM135.72 45.7641C130.75 45.7641 127.549 47.6129 127.549 51.4779C127.549 55.5949 131.424 58.0313 136.815 58.0313C142.88 58.0312 147.934 55.0064 147.934 49.3771V45.7641H135.72Z" fill="white"/>
<path d="M227.436 65.0892H216.654V22.5748H227.436V65.0892Z" fill="white"/>
<path d="M227.604 15.7691H216.401V2.99783H227.604V15.7691Z" fill="white"/>
</g>
<defs>
<clipPath id="clip0_32_533">
<rect width="313.079" height="86" fill="white"/>
</clipPath>
</defs>
</svg>
