<?xml version="1.0" encoding="UTF-8"?>
<svg xmlns="http://www.w3.org/2000/svg" width="217" height="33" viewBox="0 0 217 33" fill="none">
  <g clip-path="url(#clip0_2148_1576)">
    <path fill-rule="evenodd" clip-rule="evenodd" d="M27.1032 16.4979H25.4836V13.3747C25.4836 8.19988 21.2886 4.00488 16.1138 4.00488C10.939 4.00488 6.74393 8.19988 6.74393 13.3747V16.4979H5.15418C3.76357 16.4979 3.2175 18.3015 4.37455 19.0728L6.74393 20.6552V24.3062C6.74393 25.5555 7.74503 26.0974 8.93022 26.4925C9.86721 26.8048 10.4919 28.3665 11.7412 28.3665C12.3658 28.3665 12.7257 28.0541 13.443 28.0541C14.38 28.0541 14.8645 28.9911 16.1138 28.9911C17.3631 28.9911 17.8325 28.0541 18.7706 28.0541C19.4674 28.0541 19.8617 28.3665 20.4864 28.3665C21.7357 28.3665 22.3883 26.7197 23.2973 26.4925C24.5467 26.1802 25.4836 25.5555 25.4836 24.3062V20.6779L27.8828 19.0728C29.0399 18.3015 28.4938 16.4979 27.1032 16.4979" fill="white"></path>
    <path fill-rule="evenodd" clip-rule="evenodd" d="M16.118 29.9236C15.1896 29.9236 14.5599 29.5469 14.1001 29.2719C13.7956 29.0897 13.6151 28.9867 13.4472 28.9867C13.2152 28.9867 13.0439 29.0386 12.8069 29.1106C11.2823 29.6542 10.2219 28.9492 9.33658 27.9764C9.09018 27.7224 8.8109 27.4345 8.63812 27.377C7.23839 26.9573 5.77051 26.0102 5.81118 24.3017C5.81114 24.3017 5.81114 21.1517 5.81114 21.1517L3.85838 19.8476C3.40919 19.5481 3.08637 19.1266 2.92539 18.629C2.6205 17.7257 2.95063 16.6353 3.7054 16.0529C4.35201 15.5323 5.01615 15.5409 5.81114 15.5565C5.78428 13.4677 5.733 11.2928 6.62157 9.35813C8.16638 5.60607 12.0531 3.06348 16.118 3.06348C20.1675 3.06348 24.0698 5.60607 25.6144 9.35813C26.5026 11.2922 26.4521 13.4712 26.4248 15.5565C27.2289 15.5425 27.9058 15.5245 28.5604 16.0529C29.3151 16.6354 29.6453 17.7257 29.3404 18.629C29.1795 19.1266 28.8566 19.5481 28.4068 19.848L26.4248 21.1739V24.3017C26.4151 26.0116 25.1879 26.9988 23.5288 27.397C23.3985 27.433 23.079 27.7657 22.888 27.9645C21.9894 28.9592 20.9524 29.6503 19.4151 29.1106C19.1814 29.0413 18.9968 28.9867 18.7748 28.9867C18.6083 28.9867 18.4305 29.0891 18.1306 29.2702C17.6738 29.5459 17.0482 29.9236 16.118 29.9236M27.111 16.4979H25.4914V13.3747C25.4914 8.19988 21.2964 4.00488 16.1216 4.00488C10.9468 4.00488 6.75174 8.19988 6.75174 13.3747V16.4979H5.16199C3.77138 16.4979 3.22531 18.3015 4.38236 19.0728L6.75174 20.6552V24.3062C6.75174 25.5555 7.75285 26.0974 8.93804 26.4925C9.87502 26.8048 10.4997 28.3665 11.749 28.3665C12.3736 28.3665 12.7335 28.0541 13.4509 28.0541C14.3878 28.0541 14.8723 28.9911 16.1216 28.9911C17.3709 28.9911 17.8403 28.0541 18.7785 28.0541C19.4752 28.0541 19.8695 28.3665 20.4942 28.3665C21.7435 28.3665 22.3961 26.7197 23.3052 26.4925C24.5545 26.1802 25.4914 25.5555 25.4914 24.3062V20.6779L27.8907 19.0728C29.0477 18.3015 28.5016 16.4979 27.111 16.4979M15.3537 12.5895C15.3537 13.8832 14.6546 14.932 13.7921 14.932C12.9296 14.932 12.2305 13.8832 12.2305 12.5895C12.2305 11.2958 12.9296 10.2471 13.7921 10.2471C14.6546 10.2471 15.3537 11.2958 15.3537 12.5895M20.0373 12.5895C20.0373 13.8832 19.3382 14.932 18.4757 14.932C17.6132 14.932 16.9141 13.8832 16.9141 12.5895C16.9141 11.2958 17.6132 10.2471 18.4757 10.2471C19.3382 10.2471 20.0373 11.2958 20.0373 12.5895" fill="#1E1E1F"></path>
    <path d="M163.746 19.6201C163.746 21.327 164.91 22.0938 166.098 22.0938C167.285 22.0936 168.447 21.3269 168.447 19.6201V12.2705H171.714V25.0391H168.447V23.6533C167.903 24.5192 166.913 25.2861 165.354 25.2861C162.979 25.2859 160.48 23.5785 160.48 19.7432V12.2705H163.746V19.6201ZM77.8486 11.9229C81.5113 11.9229 83.54 14.249 83.54 17.7871V25.0381H80.2744V23.5771C79.6803 24.5425 78.6657 25.2851 76.7109 25.2852C73.7908 25.2852 72.0587 23.8502 72.0586 21.499C72.0586 19.6432 72.7024 18.5296 74.4834 17.6885C75.7455 17.0944 78.2945 16.8967 80.2246 16.748V16.7227C80.0016 15.5847 79.1851 14.8672 77.8486 14.8672C76.7108 14.8672 75.9182 15.412 75.5967 16.2783H72.3066C72.8262 13.6058 74.7311 11.9229 77.8486 11.9229ZM114.921 11.9229C118.584 11.9229 120.612 14.249 120.612 17.7871V19.4209C120.612 22.9595 118.583 25.2852 114.921 25.2852C111.259 25.285 109.231 22.9594 109.23 19.4209V17.7871C109.23 14.2491 111.259 11.923 114.921 11.9229ZM200.894 11.9229C204.556 11.9229 206.585 14.249 206.585 17.7871V19.7666H198.469V19.8408C198.469 21.3502 199.335 22.3407 200.894 22.3408C202.032 22.3408 202.825 21.7957 203.146 20.9297H206.462C205.942 23.6022 204.012 25.2852 200.894 25.2852C197.232 25.285 195.203 22.9594 195.203 19.4209V17.7871C195.203 14.2491 197.232 11.923 200.894 11.9229ZM178.964 11.9189C181.562 11.9189 183.69 13.1561 183.913 16.0508H180.572C180.399 15.2345 179.681 14.8633 178.865 14.8633C177.925 14.8633 177.38 15.2351 177.355 15.8291C177.356 16.3729 177.801 16.6447 178.346 16.7686L181.216 17.4121C182.602 17.7337 184.31 18.699 184.31 21.3467C184.31 24.1927 182.007 25.2812 179.335 25.2812C176.687 25.2811 173.917 23.92 173.793 20.9014H177.059C177.207 21.891 178.371 22.3369 179.435 22.3369C180.078 22.3369 181.043 22.1878 181.043 21.3467C181.043 20.8271 180.672 20.5297 179.904 20.3564L177.232 19.7627C175.847 19.4411 174.09 18.3526 174.09 15.8535C174.09 13.3546 176.341 11.919 178.964 11.9189ZM104.382 12.2715H107.524V15.2158H104.382V21.0801C104.382 21.6738 104.53 22.0946 105.321 22.0947H107.524V25.0391H104.382C102.105 25.0391 101.115 23.8267 101.115 21.7725V15.2158H99.3086V12.2715H101.115V9.37598H104.382V12.2715ZM190.347 12.2715H193.489V15.2158H190.347V21.0801C190.347 21.6738 190.495 22.0946 191.286 22.0947H193.489V25.0391H190.347C188.07 25.0391 187.08 23.8267 187.08 21.7725V15.2158H185.273V12.2715H187.08V9.37598H190.347V12.2715ZM216.357 15.2393H214.823C213.586 15.2394 212.399 15.9822 212.398 17.7139V25.0391H209.133V12.2705H212.398V13.6562C212.77 12.8151 213.859 12.0479 215.368 12.0479H216.357V15.2393ZM50.5303 7.71582C54.6373 7.71587 56.5186 10.5369 56.5186 13.7041C56.5185 16.8465 54.6373 19.7167 50.5303 19.7168H46.7686V25.0371H43.4531V7.71582H50.5303ZM61.6172 13.3818C62.1864 12.5159 63.4729 11.922 64.6113 11.9219C67.2093 11.9219 69.7333 13.7039 69.7334 17.4648V25.0371H66.4668V17.5889C66.4668 15.8565 65.2792 15.1143 64.042 15.1143C62.8049 15.1144 61.6172 15.8567 61.6172 17.5889V25.0371H58.3516V7.71582H61.6172V13.3818ZM152.484 7.71582C155.998 7.71583 157.953 9.69538 157.953 12.6895C157.953 14.1246 157.434 15.3869 156.395 16.1787C157.607 17.094 158.374 18.4299 158.374 19.9639C158.374 23.032 156.444 25.0369 152.881 25.0371H145.309V7.71582H152.484ZM92.5996 11.9189C95.1976 11.9189 97.7217 13.7009 97.7217 17.4619V25.0342H94.4551V17.5859C94.4551 15.8536 93.2675 15.1113 92.0303 15.1113C90.7932 15.1115 89.6055 15.8538 89.6055 17.5859V25.0342H86.3398V12.2656H89.6055V13.3789C90.1747 12.513 91.4611 11.919 92.5996 11.9189ZM136.771 11.9189C140.013 11.9189 142.389 13.7257 142.389 17.4619V25.0342H139.122V17.5859C139.122 15.8784 137.935 15.1113 136.771 15.1113C135.609 15.1114 134.421 15.8785 134.421 17.5859V25.0342H131.154V17.5859C131.154 15.8786 129.967 15.1115 128.805 15.1113C127.641 15.1113 126.453 15.8784 126.453 17.5859V25.0342H123.188V12.2656H126.453V13.3291C127.071 12.4632 128.235 11.919 129.349 11.9189C130.685 11.9189 131.897 12.4137 132.788 13.6016C133.704 12.4882 135.015 11.919 136.771 11.9189ZM80.2734 19.4424C78.4173 19.5659 76.6349 19.7142 76.0166 20.0361C75.4724 20.3083 75.3242 20.581 75.3242 21.125C75.3244 21.7435 75.7943 22.412 77.2539 22.4121C78.9361 22.4121 80.2733 21.4712 80.2734 19.8633V19.4424ZM114.921 14.8643C113.362 14.8643 112.496 15.8538 112.496 17.3633V19.8379C112.496 21.3472 113.362 22.3369 114.921 22.3369C116.48 22.3369 117.347 21.3472 117.347 19.8379V17.3633C117.347 15.8538 116.48 14.8643 114.921 14.8643ZM148.625 21.7451H152.979C154.341 21.7451 155.059 21.0522 155.059 19.8398C155.059 18.6026 154.242 17.9346 152.979 17.9346H148.625V21.7451ZM200.894 14.8643C199.434 14.8643 198.593 15.7306 198.469 17.042V17.0664H203.294V17.042C203.195 15.7058 202.354 14.8643 200.894 14.8643ZM46.7695 16.4238H50.5312C52.3617 16.4237 53.2031 15.0383 53.2031 13.7021C53.2031 12.366 52.3617 11.005 50.5312 11.0049H46.7695V16.4238ZM148.625 14.6426H152.56C153.821 14.6426 154.638 13.999 154.638 12.8115C154.638 11.5991 153.821 11.0049 152.56 11.0049H148.625V14.6426Z" fill="white"></path>
  </g>
  <defs>
    <clipPath id="clip0_2148_1576">
      <rect width="215.853" height="31.2328" fill="white" transform="translate(0.5 0.883789)"></rect>
    </clipPath>
  </defs>
</svg>
